<?xml version="1.0" encoding="utf-8"?>
<!-- Generator: Adobe Illustrator 19.1.0, SVG Export Plug-In . SVG Version: 6.00 Build 0)  -->
<svg version="1.1" xmlns="http://www.w3.org/2000/svg" xmlns:xlink="http://www.w3.org/1999/xlink" x="0px" y="0px"
	 viewBox="0 0 500 500" style="enable-background:new 0 0 500 500;" xml:space="preserve">
	<g>
		<path d="M290.1,62c26.3-4.3,48.7,10.3,48.7,32.3v310.6c0,22.2-22.4,36.6-48.7,32.3l-123-19.6c-20.2-3.2-36.1-20.7-36.1-39.1V120.6
			c0-18.4,15.9-35.8,36.1-39.1L290.1,62 M290.1,7.4l-123,25.4c-47.5,9.8-83.2,51.6-83.2,93.7v245.8c0,42.1,35.7,83.9,83.2,93.7
			l123.1,25.4c65.5,13.5,124.8-20.5,124.8-77V84.6C414.9,28,355.6-6,290.1,7.4L290.1,7.4z"/>
		<path d="M242.6,273.6c0,13.3,10.7,24,24,24c13.3,0,24-10.7,24-24v-48.1c0-13.3-10.7-24-24-24c-13.3,0-24,10.7-24,24L242.6,273.6
			L242.6,273.6z"/>
	</g>
</svg>
