<?xml version="1.0" encoding="utf-8"?>
<!-- Generator: Adobe Illustrator 19.1.0, SVG Export Plug-In . SVG Version: 6.00 Build 0)  -->
<svg version="1.1" id="レイヤー_1" xmlns="http://www.w3.org/2000/svg" xmlns:xlink="http://www.w3.org/1999/xlink" x="0px"
	 y="0px" viewBox="0 0 500 500" style="enable-background:new 0 0 500 500;" xml:space="preserve">
<style type="text/css">
	.st0{fill:#FF9900;}
</style>
<g>
	<path class="st0" d="M265.3,128.5c17.2-2.8,31.8,6.7,31.8,21.1v202.8c0,14.5-14.6,23.9-31.8,21.1L185,360.7
		c-13.2-2.1-23.6-13.5-23.6-25.5V166.8c0-12,10.4-23.4,23.6-25.5L265.3,128.5 M265.3,92.9L185,109.5c-31,6.4-54.3,33.7-54.3,61.2
		v160.5c0,27.5,23.3,54.8,54.3,61.2l80.4,16.6c42.8,8.8,81.5-13.4,81.5-50.3V143.3C346.8,106.3,308.1,84.1,265.3,92.9L265.3,92.9z"
		/>
	<path class="st0" d="M234.3,266.7c0,8.7,7,15.7,15.7,15.7c8.7,0,15.7-7,15.7-15.7v-31.4c0-8.7-7-15.7-15.7-15.7
		c-8.7,0-15.7,7-15.7,15.7V266.7z"/>
</g>
</svg>
